<svg width="69" height="69" viewBox="0 0 69 69" fill="none" xmlns="http://www.w3.org/2000/svg">
<rect width="68.8946" height="68.8315" rx="34.4157" fill="#0984E3"/>
<path d="M47.8946 39.284C47.0039 41.3903 45.6109 43.2463 43.8372 44.6898C42.0635 46.1333 39.9632 47.1204 37.72 47.5647C35.4767 48.009 33.1588 47.897 30.9688 47.2385C28.7788 46.58 26.7834 45.3951 25.1572 43.7873C23.5309 42.1795 22.3233 40.1979 21.6399 38.0155C20.9564 35.8332 20.818 33.5167 21.2366 31.2685C21.6553 29.0203 22.6183 26.9089 24.0414 25.1188C25.4646 23.3288 27.3046 21.9146 29.4006 21" stroke="#FFEAA7" stroke-width="3" stroke-linecap="round" stroke-linejoin="round"/>
<path d="M48 35C48 33.1615 47.6379 31.341 46.9343 29.6424C46.2307 27.9439 45.1995 26.4005 43.8995 25.1005C42.5995 23.8005 41.0561 22.7693 39.3576 22.0657C37.659 21.3621 35.8385 21 34 21V35H48Z" stroke="#FFEAA7" stroke-width="3" stroke-linecap="round" stroke-linejoin="round"/>
</svg>
