<svg width="70" height="70" viewBox="0 0 70 70" fill="none" xmlns="http://www.w3.org/2000/svg">
<rect width="69.2434" height="69.2994" rx="34.6217" fill="#E84393"/>
<path d="M38.1134 25.6C39.4808 25.8668 40.7375 26.5356 41.7227 27.5207C42.7078 28.5059 43.3766 29.7626 43.6434 31.13M38.1134 20C40.9543 20.3156 43.6036 21.5878 45.6261 23.6078C47.6486 25.6278 48.9242 28.2754 49.2434 31.116M47.8434 42.288V46.488C47.8449 46.8779 47.7651 47.2638 47.6089 47.6211C47.4527 47.9783 47.2236 48.299 46.9363 48.5626C46.649 48.8262 46.3098 49.0269 45.9404 49.1518C45.5711 49.2767 45.1797 49.3231 44.7914 49.288C40.4833 48.8199 36.3452 47.3478 32.7094 44.99C29.3267 42.8405 26.4588 39.9726 24.3094 36.59C21.9433 32.9377 20.4709 28.7794 20.0114 24.452C19.9764 24.0649 20.0224 23.6747 20.1465 23.3063C20.2705 22.9379 20.47 22.5994 20.732 22.3123C20.9941 22.0252 21.3131 21.7958 21.6687 21.6387C22.0243 21.4817 22.4086 21.4004 22.7974 21.4H26.9974C27.6768 21.3933 28.3355 21.6339 28.8506 22.0769C29.3658 22.52 29.7023 23.1352 29.7974 23.808C29.9746 25.1521 30.3034 26.4718 30.7774 27.742C30.9657 28.2431 31.0065 28.7877 30.8948 29.3112C30.7832 29.8348 30.5238 30.3154 30.1474 30.696L28.3694 32.474C30.3623 35.979 33.2644 38.881 36.7694 40.874L38.5474 39.096C38.928 38.7196 39.4086 38.4602 39.9321 38.3485C40.4557 38.2369 41.0003 38.2776 41.5014 38.466C42.7715 38.94 44.0913 39.2687 45.4354 39.446C46.1154 39.5419 46.7365 39.8845 47.1805 40.4085C47.6245 40.9325 47.8604 41.6014 47.8434 42.288Z" stroke="#FFEAA7" stroke-width="3" stroke-linecap="round" stroke-linejoin="round"/>
</svg>
